<svg xmlns="http://www.w3.org/2000/svg" version="1.1" xmlns-xlink="http://www.w3.org/1999/xlink" xmlns-svgjs="http://svgjs.dev/svgjs" width="1000" height="1125" viewBox="0 0 1000 1125"><g transform="matrix(1,0,0,1,1.7053025658242404e-13,0)"><svg viewBox="0 0 320 360" data-background-color="#1ebbd7" preserveAspectRatio="xMidYMid meet" height="1125" width="1000" xmlns="http://www.w3.org/2000/svg" xmlns:xlink="http://www.w3.org/1999/xlink"><g id="tight-bounds" transform="matrix(1,0,0,1,0,0)"><svg viewBox="0 0 320 360" height="360" width="320"><g><svg></svg></g><g><svg viewBox="0 0 320 360" height="360" width="320"><g><path xmlns="http://www.w3.org/2000/svg" d="M20.961 227.22l3.726 4.658-1.863-6.056c-0.466-2.795-3.726 0.466-1.863 1.398M25.153 224.425c1.397 2.329 2.795 4.658 2.795 6.987 0 3.261 2.795 4.658 5.123 5.589-3.261-3.726-5.124-13.974-7.918-12.576M204.017 26.929c7.918 0 15.371-0.932 23.756 0.931 20.495 5.124 37.729 15.371 49.374 29.811l32.606 52.169c1.397 13.042 4.192 27.482 3.726 43.319 3.261 0 2.795-4.658 6.521-5.59-3.726 9.316-5.59 20.961-6.521 34.469-2.329-7.453 0-18.632 0.466-24.687-3.261 5.124-5.124 1.397-5.124-0.932 0.466-3.726-1.397-3.261-2.795-4.658-5.124-4.658-8.384-9.782-12.11-17.7 2.329-6.055 2.795-14.905-4.658-19.563-2.329-1.397-5.124-3.726-6.521-7.453-1.863-5.124-5.124-11.179-4.193-19.097 0.466-2.329-6.987 5.124-11.179 1.863-18.166-12.576-36.332-27.016-58.224-39.127-11.645 0-20.029-4.192-24.221-9.316-3.726-4.658-0.932-10.713 4.658-11.179 3.261 0 6.987-0.932 9.782 0.932 0.466-1.863 2.329-4.192 4.657-4.192M157.904 16.215l0.932 0.466c4.658 0.932 6.987 7.453 12.11 5.124 0 3.261 0.466 6.521-0.466 8.85-1.397 3.726-5.59 3.726-8.85 3.726-31.208-1.863-49.374 11.179-68.471 22.358-5.124 3.261-10.713 5.59-14.906 9.782-20.029 18.632-41.921 35.866-47.045 70.335l-4.192 38.195c-0.466 4.192-5.124 8.384-4.192 13.508l3.26 22.824c-3.261-3.261-5.124 0.932-4.192 2.795 0.466 1.397 2.329 6.055 5.124 1.863 3.726 6.987 7.453 20.495 12.576 26.55 15.837 18.632 36.332 35.4 53.101 52.169 4.192-0.932 7.453-0.932 8.384-3.727 1.397 2.795-1.397 5.59-3.726 6.056 7.453 4.658 15.837 8.85 27.016 9.781 14.44 0.932 27.948 3.261 40.524 6.522 6.521-1.863 13.042-2.795 20.029-3.261 2.329 0 3.726-3.726 6.521-4.658l0.466-4.658c2.795 4.192 2.329-1.397 0.466-4.192 3.261 2.795 4.192 5.124 5.589 6.987 0-1.397 3.726-6.521 3.727-0.466l0.931-6.055c1.397-0.932 1.863 5.124 3.261 0.931 1.397-4.192 4.192-0.932 6.987-2.329-0.932 1.863-0.466 5.59 2.794 3.261l3.727-3.261c2.329 5.59 6.055 3.261 7.918 2.329 20.495-13.042 40.99-28.413 60.553-43.784l-0.466 6.055 2.329-7.453c2.329 2.329 4.192 0.466 5.124-0.931 2.795-4.658 6.521-9.316 12.577-13.508-7.453 20.029-16.303 35.866-27.482 48.908l-4.658 5.59c0 3.261-0.932 7.453-4.658 7.918-1.863 0.466-5.59-0.932-8.384 1.863-1.397 1.863 3.261 5.59-0.466 2.795-3.261-2.329-6.521 0-10.248 0.932-2.795 0.932 1.863 3.726 2.795 5.589 0.932 1.863 1.863 3.726 1.398 6.056l-5.124-5.59c-6.055 3.261-9.782 9.316-14.906 13.974-2.329 1.863-1.397 5.124-1.397 7.918-3.261 0-6.987-0.932-8.85 0.932-1.397 1.863-0.932 4.658-0.932 7.453-4.658-0.466-5.124-7.453-9.315-6.056-4.192 0.932-8.85 1.397-12.577 3.727 2.795 5.59-4.658 2.329-3.726 3.26-6.987-4.192-13.042-7.453-20.495-4.658-15.837-5.124-35.4-2.795-49.84-0.931 0-2.329 0.466-4.658-0.466-5.124-0.932 2.329-3.726 1.397-3.26 1.397-8.85-6.055-17.7-9.782-27.016-14.905-8.384 0.932-16.303-3.261-18.632-5.59-6.521-6.055-13.974-2.795-20.029-4.192-13.042-3.261-17.7-16.769-19.098-26.084-0.932-4.658-4.658-6.521-6.055-6.056-6.055-19.563-15.371-37.263-22.824-55.429-1.863-4.658-1.397-9.316-1.397-14.44 2.329 0.932 4.658 0.466 4.192-2.794-2.329-15.371-7.918-27.016-13.974-38.195 3.261-15.837 3.726-34.469 11.179-48.443 6.521-12.576 18.632-19.098 27.016-29.811 2.795-3.726 2.795-8.85 5.59-12.11 9.316-9.316 18.632-19.098 28.879-27.482 4.658-3.726 10.247 0 17.234-1.397 2.329-8.384 11.645-15.837 20.495-13.508 3.726 0.932 11.179-8.85 13.508-9.782 3.726-1.397 1.863 3.726 1.863 6.987 8.85-6.987 20.961-10.713 32.14-14.906" fill="#010c80" fill-rule="nonzero" stroke="none" stroke-width="1" stroke-linecap="butt" stroke-linejoin="miter" stroke-miterlimit="10" stroke-dasharray="" stroke-dashoffset="0" font-family="none" font-weight="none" font-size="none" text-anchor="none" style="mix-blend-mode: normal" data-fill-palette-color="tertiary"></path></g><g transform="matrix(1,0,0,1,70.08427030970913,90)"><svg viewBox="0 0 179.83145938058175 180" height="180" width="179.83145938058175"><g><svg viewBox="0 0 179.83145938058175 180" height="180" width="179.83145938058175"><g><svg viewBox="0 0 192 192.17994514997412" height="180" width="179.83145938058175"><g transform="matrix(1,0,0,1,0,116.15711173015055)"><svg viewBox="0 0 192 76.02283341982358" height="76.02283341982358" width="192"><g><svg viewBox="0 0 192 76.02283341982358" height="76.02283341982358" width="192"><g><svg viewBox="0 0 192 76.02283341982358" height="76.02283341982358" width="192"><g transform="matrix(1,0,0,1,0,0)"><svg width="192" viewBox="1 -37.79999923706055 96.33999633789062 38.14999771118164" height="76.02283341982358" data-palette-color="#010c80"><path d="M10.9 0.05L6.75 0 2.45 0.2Q1 0.2 1-0.4L1-0.4Q1-1.1 1.75-1.35L1.75-1.35Q3.35-1.95 4.55-4.03 5.75-6.1 10.58-16.57 15.4-27.05 19.15-35.05L19.15-35.05Q19.5-35.8 19.78-36 20.05-36.2 20.58-36.2 21.1-36.2 21.25-36 21.4-35.8 21.8-34.65 22.2-33.5 22.43-32.9 22.65-32.3 23.15-30.95 23.65-29.6 24.75-26.9 25.85-24.2 29.78-15.08 33.7-5.95 34.3-4.73 34.9-3.5 35.95-2.63 37-1.75 37.77-1.68 38.55-1.6 39.08-1.43 39.6-1.25 39.6-0.65L39.6-0.65Q39.6 0.1 38.25 0.1L38.25 0.1 33.75-0.2 29.1 0Q27.55 0 27.13-0.13 26.7-0.25 26.7-0.65 26.7-1.05 27.1-1.28 27.5-1.5 27.95-1.58 28.4-1.65 28.8-2.02 29.2-2.4 29.2-3.28 29.2-4.15 27.95-7.55 26.7-10.95 25.85-12.55L25.85-12.55Q25.4-13.4 23.8-13.4L23.8-13.4 17.75-13.3 15.1-13.3Q12.85-13.3 12.28-13.05 11.7-12.8 11.33-12 10.95-11.2 10.25-9.78 9.55-8.35 9.3-7.8 9.05-7.25 8.7-6.4L8.7-6.4Q8.05-4.9 8.05-3.9 8.05-2.9 8.63-2.3 9.2-1.7 9.9-1.6L9.9-1.6Q11.75-1.45 11.75-0.65L11.75-0.65Q11.75-0.3 11.6-0.13 11.45 0.05 10.9 0.05L10.9 0.05ZM18.8-28.5Q18.35-28.5 15.95-22.98 13.55-17.45 13.55-16.85 13.55-16.25 14-16.1 14.45-15.95 16.1-15.95L16.1-15.95 17.65-15.95 22.4-16Q24.35-16 24.35-16.73 24.35-17.45 21.9-22.98 19.45-28.5 18.8-28.5L18.8-28.5ZM53 0L53 0 49.35-0.2Q48.05-0.2 45.9-0.1L45.9-0.1 43.75 0Q43 0 43-0.45 43-0.9 43.25-1 43.5-1.1 43.87-1.15 44.25-1.2 44.6-1.45L44.6-1.45Q45.55-2.05 45.65-5.08 45.75-8.1 45.75-9.05L45.75-9.05 45.75-16.25Q45.75-17.85 45.17-18.4 44.6-18.95 43.6-18.95L43.6-18.95 43.1-18.95Q42.15-18.95 42.15-19.5L42.15-19.5Q42.15-20 43.22-20.15 44.3-20.3 44.92-20.48 45.55-20.65 46.57-21.08 47.6-21.5 48.22-21.8 48.85-22.1 49.05-22.1L49.05-22.1 49.15-22.1Q49.6-22.1 49.6-21.5L49.6-21.5 49.5-19.35Q49.5-18.05 49.7-18.05 49.9-18.05 50.1-18.3L50.1-18.3Q50.85-19.35 52.1-20.1L52.1-20.1Q54.35-21.5 56.4-21.5 58.45-21.5 60.05-20.88 61.65-20.25 62.55-19.33 63.45-18.4 64.05-17.2L64.05-17.2Q65.05-15.2 65.05-13.1L65.05-13.1 65.05-12.6 65.1-9.95 65.1-4.85Q65.1-2.95 65.62-2.23 66.15-1.5 68.15-1.2L68.15-1.2Q69.15-1.05 69.15-0.45L69.15-0.45Q69.15 0.05 68.15 0.05L68.15 0.05 64.05-0.2 60.2 0Q59.2 0 59.2-0.65L59.2-0.65Q59.2-1.1 59.8-1.25L59.8-1.25 60.45-1.4Q61.55-1.75 61.55-4.75L61.55-4.75 61.55-11.5Q61.55-15.35 59.65-17.32 57.75-19.3 55.35-19.3 52.95-19.3 51.35-18.15 49.75-17 49.4-16 49.05-15 49.05-8.35L49.05-8.35 49.05-6.45Q49.05-3.95 49.57-2.75 50.1-1.55 51.9-1.4L51.9-1.4Q52.4-1.4 53.17-1.23 53.95-1.05 53.95-0.65L53.95-0.65Q53.95 0 53 0ZM81.65 0.3L78.1 0.2 74.55 0.3Q72.55 0.3 72.55-0.38 72.55-1.05 73.3-1.3L73.3-1.3Q73.35-1.3 73.5-1.35L73.5-1.35Q74.65-1.75 75-2.55 75.35-3.35 75.35-10.3L75.35-10.3 75.35-14.7Q75.35-16.15 75-17 74.65-17.85 74.35-18.05 74.05-18.25 73.32-18.38 72.6-18.5 72.27-18.63 71.95-18.75 71.95-19.03 71.95-19.3 72.07-19.45 72.2-19.6 72.57-19.78 72.95-19.95 73.35-20.1L73.35-20.1Q74.75-20.5 75.65-20.9 76.55-21.3 77.02-21.5 77.5-21.7 77.65-21.8L77.65-21.8Q78-21.95 78.5-21.95L78.5-21.95Q79.25-21.95 79.25-21L79.25-21 78.95-18.6 78.95-4.9Q78.95-3.4 79.42-2.55 79.9-1.7 80.42-1.5 80.95-1.3 81.65-1.25 82.35-1.2 82.55-1.2L82.55-1.2Q83.25-1.1 83.25-0.5L83.25-0.5Q83.25 0.35 82.4 0.35L82.4 0.35 81.65 0.3ZM77.25-26.65Q76.25-26.65 75.52-27.7 74.8-28.75 74.8-29.43 74.8-30.1 75.67-31.18 76.55-32.25 77.32-32.25 78.1-32.25 78.85-31.23 79.6-30.2 79.6-29.4 79.6-28.6 78.65-27.63 77.7-26.65 77.25-26.65L77.25-26.65ZM88.89-5.9L88.89-9.6 89.09-30.85Q89.09-32 88.72-32.93 88.34-33.85 87.89-34.05 87.44-34.25 85.89-34.25L85.89-34.25Q85.34-34.25 85.34-34.6 85.34-34.95 85.42-35.1 85.49-35.25 85.74-35.38 85.99-35.5 86.34-35.6L86.34-35.6Q87.79-35.9 89.34-36.65L89.34-36.65Q91.79-37.8 92.54-37.8L92.54-37.8Q93.14-37.8 93.14-36.85L93.14-36.85Q93.14-36.65 93.04-35.7L93.04-35.7Q92.74-32.75 92.74-29.25L92.74-29.25 92.74-26.45 92.64-19.8 92.64-4.9Q92.64-3.85 92.82-3.18 92.99-2.5 93.97-1.88 94.94-1.25 96.69-1.25L96.69-1.25Q96.94-1.25 97.14-1 97.34-0.75 97.34-0.5L97.34-0.5Q97.34 0.2 95.79 0.2L95.79 0.2 90.74-0.15Q89.44-0.15 88.27 0.05 87.09 0.25 86.72 0.25 86.34 0.25 86.12 0.08 85.89-0.1 85.89-0.38 85.89-0.65 86.12-0.83 86.34-1 86.84-1.1L86.84-1.1Q88.34-1.5 88.64-2.33 88.94-3.15 88.94-4.6L88.94-4.6 88.89-5.9Z" opacity="1" transform="matrix(1,0,0,1,0,0)" fill="#010c80" class="undefined-text-0" data-fill-palette-color="primary" id="text-0"></path></svg></g></svg></g></svg></g></svg></g><g transform="matrix(1,0,0,1,43.4682221069019,0)"><svg viewBox="0 0 105.0635557861962 105.0635557861962" height="105.0635557861962" width="105.0635557861962"><g><svg xmlns="http://www.w3.org/2000/svg" xmlns:xlink="http://www.w3.org/1999/xlink" version="1.1" x="0" y="0" viewBox="1 1 126 126" style="enable-background:new 0 0 128 128;" xml:space="preserve" height="105.0635557861962" width="105.0635557861962" class="icon-icon-0" data-fill-palette-color="accent" id="icon-0"><g fill="#00ffef" data-fill-palette-color="accent"><path d="M110.937 52.703c-7.691-4.44-16.653-5.62-25.231-3.321-8.267 2.215-15.218 7.411-19.687 14.668 9.403 17.409 3.288 39.323-13.954 49.278-5.771 3.331-12.084 4.915-18.313 4.915-0.632 0-1.264-0.028-1.894-0.062C41.271 123.777 52.257 127 64 127c31.814 0 58.104-23.586 62.378-54.223C124.154 64.602 118.837 57.265 110.937 52.703z" fill="#00ffef" data-fill-palette-color="accent"></path><path d="M64 1c-8.339 0-16.291 1.635-23.575 4.577C34.448 11.591 30.749 19.872 30.749 29c0 18.01 14.396 32.711 32.285 33.226 4.938-8.026 12.624-13.774 21.766-16.224 9.482-2.54 19.386-1.237 27.887 3.671 6.348 3.666 11.181 8.957 14.295 15.043C126.983 64.476 127 64.24 127 64 127 29.206 98.795 1 64 1z" fill="#00ffef" data-fill-palette-color="accent"></path><path d="M50.314 110.297c15.598-9.006 21.13-28.825 12.632-44.574C43.168 65.162 27.249 48.91 27.249 29c0-7.337 2.17-14.175 5.891-19.918C13.961 19.882 1 40.421 1 64c0 20.167 9.486 38.105 24.228 49.636C33.414 115.793 42.419 114.854 50.314 110.297z" fill="#00ffef" data-fill-palette-color="accent"></path></g></svg></g></svg></g><g></g></svg></g></svg></g></svg></g></svg></g><defs></defs></svg><rect width="320" height="360" fill="none" stroke="none" visibility="hidden"></rect></g></svg></g></svg>